# xmcd
#
# Track frame offsets: 
#        150
#        25391
#        45990
#        62958
#        76706
#        97188
#        111168
#        125649
#        144039
#        161158
#
# Disc length: 2425 seconds
#
# Revision: 6
# Processed by: cddbd v1.5.2PL0 Copyright (c) Steve Scherf et al.
# Submitted via: ExactAudioCopy v0.99pb5
#
DISCID=8109770a
DTITLE=Frank Boeijen - Schaduw van de liefde
DYEAR=2003
DGENRE=Frank Boeijen
TTITLE0=Chateau de Fleury
TTITLE1=Zonder warmte
TTITLE2=Stille strijd
TTITLE3=Dialoog
TTITLE4=Hoe lang kun je samen
TTITLE5=Onder ons
TTITLE6=Vertrekhal
TTITLE7=Kaap de Goede Hoop
TTITLE8=Schaduw van de liefde
TTITLE9=Ik drink
EXTD=YEAR: 2003
EXTT0=
EXTT1=
EXTT2=
EXTT3=
EXTT4=
EXTT5=
EXTT6=
EXTT7=
EXTT8=
EXTT9=
PLAYORDER=
